<?xml version="1.0" encoding="UTF-8" standalone="no"?>
<!-- Created with Inkscape (http://www.inkscape.org/) -->
<svg xmlns:dc="http://purl.org/dc/elements/1.1/" xmlns:cc="http://creativecommons.org/ns#" xmlns:rdf="http://www.w3.org/1999/02/22-rdf-syntax-ns#" xmlns:svg="http://www.w3.org/2000/svg" xmlns="http://www.w3.org/2000/svg" xmlns:sodipodi="http://sodipodi.sourceforge.net/DTD/sodipodi-0.dtd" xmlns:inkscape="http://www.inkscape.org/namespaces/inkscape" width="157.89233mm" height="39.113461mm" viewBox="0 0 559.46103 138.591" id="svg3465" version="1.1" inkscape:version="0.91 r13725" sodipodi:docname="logo.svg">
  <defs id="defs3467"/>
  <sodipodi:namedview id="base" pagecolor="#ffffff" bordercolor="#666666" borderopacity="1.0" inkscape:pageopacity="0.0" inkscape:pageshadow="2" inkscape:zoom="0.35" inkscape:cx="857.58764" inkscape:cy="-36.418785" inkscape:document-units="px" inkscape:current-layer="layer1" showgrid="false" fit-margin-top="0" fit-margin-left="0" fit-margin-right="0" fit-margin-bottom="0" inkscape:window-width="1366" inkscape:window-height="718" inkscape:window-x="0" inkscape:window-y="25" inkscape:window-maximized="1"/>
  <metadata id="metadata3470">
    <rdf:RDF>
      <cc:Work rdf:about="">
        <dc:format>image/svg+xml</dc:format>
        <dc:type rdf:resource="http://purl.org/dc/dcmitype/StillImage"/>
        <dc:title/>
      </cc:Work>
    </rdf:RDF>
  </metadata>
  <g inkscape:label="Capa 1" inkscape:groupmode="layer" id="layer1" transform="translate(482.58764,-357.35242)">
    <g transform="translate(-513.72064,324.71742)" id="g5">
      <g id="g7">
        <path style="fill:#ffffff" inkscape:connector-curvature="0" d="m 175.21,87.466 c 0,-8.315 -1.056,-15.845 -3.161,-22.581 -2.11,-6.744 -5.547,-12.508 -10.327,-17.317 -4.769,-4.798 -10.954,-8.492 -18.539,-11.07 -7.584,-2.576 -16.855,-3.863 -27.809,-3.863 -1.684,0 -3.299,0.038 -4.881,0.093 l 0.011,-0.063 -2.641,0 c -0.649,-0.011 -1.289,-0.03 -1.95,-0.03 -0.773,0 -1.531,0.015 -2.289,0.03 l -59.708,0 -10.364,59.453 c -0.028,0.135 -0.063,0.271 -0.09,0.405 -0.906,4.482 -1.521,8.701 -1.848,12.657 -0.318,3.953 -0.481,7.453 -0.481,10.496 0,8.324 1.053,15.85 3.163,22.588 2.108,6.738 5.551,12.506 10.325,17.313 4.775,4.803 10.954,8.49 18.54,11.078 7.584,2.57 16.854,3.856 27.811,3.856 1.703,0 3.334,-0.036 4.93,-0.094 l -0.006,0.035 1.292,0 c 1.066,0.032 2.142,0.059 3.245,0.059 1.198,0 2.373,-0.022 3.534,-0.059 l 58.515,0 10.779,-61.823 c 0.696,-3.742 1.197,-7.3 1.466,-10.66 0.321,-3.955 0.483,-7.453 0.483,-10.503 z" id="path9"/>
        <g id="g11">
          <path style="fill:#04b8f4" inkscape:connector-curvature="0" d="m 91.64,79.714 c 0.32,-0.655 0.582,-1.451 0.776,-2.395 0.187,-0.921 0.254,-1.703 0.217,-2.345 -0.041,-0.637 -0.252,-1.158 -0.615,-1.563 -0.373,-0.418 -0.917,-0.703 -1.642,-0.886 -0.726,-0.171 -1.66,-0.27 -2.808,-0.27 -1.171,0 -2.146,0.098 -2.928,0.27 -0.792,0.183 -1.453,0.468 -1.998,0.886 -0.551,0.406 -0.979,0.927 -1.31,1.563 -0.322,0.642 -0.586,1.423 -0.773,2.345 -0.212,0.944 -0.297,1.74 -0.241,2.395 0.052,0.647 0.257,1.176 0.626,1.571 0.363,0.396 0.907,0.67 1.637,0.844 0.718,0.167 1.646,0.25 2.79,0.25 1.161,0 2.153,-0.083 2.941,-0.25 0.792,-0.174 1.463,-0.448 2.005,-0.844 0.55,-0.395 0.988,-0.924 1.323,-1.571 z m -3.375,8.018 c -0.37,-0.141 -0.863,-0.245 -1.508,-0.325 -0.632,-0.071 -1.445,-0.113 -2.455,-0.113 -1.002,0 -1.843,0.042 -2.508,0.113 -0.675,0.081 -1.218,0.184 -1.642,0.325 -0.418,0.138 -0.735,0.309 -0.937,0.503 -0.201,0.184 -0.332,0.41 -0.387,0.667 l -7.207,34.083 c -0.063,0.256 -0.03,0.479 0.08,0.67 0.108,0.19 0.345,0.352 0.718,0.475 0.365,0.135 0.866,0.23 1.508,0.291 0.642,0.064 1.463,0.096 2.471,0.096 0.982,0 1.808,-0.031 2.485,-0.096 0.677,-0.061 1.227,-0.156 1.649,-0.291 0.413,-0.123 0.73,-0.283 0.935,-0.475 0.201,-0.191 0.332,-0.414 0.385,-0.67 l 7.207,-34.083 c 0.058,-0.257 0.027,-0.483 -0.081,-0.667 -0.105,-0.194 -0.342,-0.365 -0.713,-0.503 z m 63.781,-14.236 c -1.785,-4.513 -4.525,-8.335 -8.207,-11.473 -3.679,-3.14 -8.339,-5.575 -13.976,-7.295 -5.642,-1.717 -12.333,-2.584 -20.062,-2.584 -6.661,0 -12.617,0.632 -17.879,1.899 -5.261,1.267 -9.934,2.995 -14.012,5.2 -4.082,2.198 -7.62,4.77 -10.619,7.719 -3.001,2.941 -5.545,6.063 -7.648,9.375 -2.1,3.324 -3.812,6.708 -5.129,10.176 -1.317,3.462 -2.345,6.867 -3.075,10.199 -0.738,3.334 -1.234,6.474 -1.489,9.421 -0.261,2.94 -0.393,5.545 -0.393,7.811 0,6.195 0.852,11.798 2.549,16.813 1.7,5.017 4.47,9.313 8.32,12.884 3.851,3.569 8.834,6.313 14.946,8.233 6.114,1.918 13.583,2.885 22.417,2.885 3.682,0 7.051,-0.159 10.124,-0.463 3.075,-0.313 5.749,-0.687 8.04,-1.129 2.283,-0.438 4.107,-0.881 5.452,-1.317 1.342,-0.443 2.161,-0.771 2.442,-0.988 0.287,-0.215 0.504,-0.453 0.672,-0.715 0.163,-0.252 0.292,-0.554 0.39,-0.875 0.092,-0.328 0.15,-0.687 0.179,-1.074 0.018,-0.398 0.033,-0.891 0.033,-1.5 0,-0.74 -0.027,-1.354 -0.076,-1.854 -0.044,-0.498 -0.125,-0.909 -0.25,-1.237 -0.113,-0.326 -0.276,-0.568 -0.493,-0.722 -0.214,-0.141 -0.456,-0.221 -0.737,-0.221 -0.481,0 -1.351,0.182 -2.622,0.555 -1.276,0.361 -2.938,0.755 -4.991,1.168 -2.06,0.412 -4.483,0.806 -7.268,1.175 -2.775,0.371 -5.892,0.553 -9.345,0.553 -7.6,0 -13.903,-0.801 -18.909,-2.422 -5.004,-1.607 -8.998,-3.873 -11.967,-6.799 -2.977,-2.927 -5.066,-6.388 -6.271,-10.4 -1.204,-4.016 -1.806,-8.441 -1.806,-13.281 0,-1.697 0.085,-3.768 0.252,-6.215 0.156,-2.446 0.499,-5.05 1.015,-7.817 0.521,-2.771 1.282,-5.646 2.269,-8.635 0.997,-2.989 2.302,-5.91 3.926,-8.769 1.629,-2.855 3.628,-5.542 5.996,-8.073 2.354,-2.531 5.182,-4.762 8.486,-6.706 3.302,-1.941 7.122,-3.485 11.466,-4.619 4.341,-1.131 9.294,-1.7 14.864,-1.7 6.792,0 12.447,0.781 16.954,2.329 4.507,1.549 8.107,3.619 10.795,6.212 2.686,2.6 4.591,5.622 5.696,9.043 1.108,3.424 1.662,7.036 1.662,10.828 0,2.191 -0.116,4.462 -0.351,6.819 -0.244,2.355 -0.619,4.656 -1.137,6.903 -0.519,2.253 -1.189,4.395 -1.987,6.419 -0.798,2.029 -1.793,3.808 -2.975,5.332 -1.181,1.527 -2.555,2.746 -4.113,3.644 -1.569,0.892 -3.1,1.476 -5.029,1.642 -0.972,0.082 -2.331,0.153 -3.203,0.012 l 9.407,-45.404 c 0.066,-0.257 0.031,-0.488 -0.073,-0.69 -0.106,-0.204 -0.333,-0.375 -0.69,-0.519 -0.353,-0.138 -0.504,-0.214 -1.14,-0.287 -0.638,-0.075 -1.453,-0.118 -2.451,-0.118 -1.012,0 -1.851,0.042 -2.518,0.118 -0.672,0.073 -1.217,0.187 -1.64,0.325 -0.425,0.142 -0.732,0.303 -0.919,0.517 -0.193,0.207 -0.319,0.433 -0.363,0.685 l -3.253,16.28 c -0.473,-0.567 -1.022,-1.106 -1.677,-1.612 -0.65,-0.511 -1.375,-0.952 -2.173,-1.324 -0.801,-0.368 -1.69,-0.663 -2.645,-0.882 -0.972,-0.216 -1.976,-0.328 -3.04,-0.328 -2.39,0 -4.542,0.4 -6.461,1.194 -1.921,0.793 -3.621,1.846 -5.099,3.181 -1.494,1.332 -2.755,2.869 -3.821,4.596 -1.067,1.743 -1.936,3.548 -2.633,5.427 -0.69,1.876 -1.194,3.77 -1.527,5.675 -0.33,1.894 -0.49,3.688 -0.49,5.351 0,0.99 0.075,2.008 0.203,3.041 0.136,1.037 0.371,2.045 0.688,3.013 0.332,0.973 0.77,1.895 1.317,2.76 0.538,0.867 1.224,1.621 2.06,2.268 0.829,0.639 1.821,1.143 2.981,1.51 1.151,0.369 2.505,0.555 4.052,0.555 1.576,0 3.107,-0.231 4.588,-0.705 1.476,-0.475 2.825,-1.088 4.046,-1.844 1.224,-0.75 2.285,-1.586 3.176,-2.498 0.901,-0.901 1.554,-1.764 1.957,-2.584 l -1.086,5.484 c -0.05,0.273 -0.032,0.504 0.061,0.707 0.012,0.021 0.038,0.036 0.052,0.057 0.585,1.135 4.434,2.872 5.42,3.215 1.601,0.574 3.491,0.896 5.426,0.896 3.637,0 6.342,-0.391 9.152,-1.51 2.811,-1.098 5.276,-2.645 7.403,-4.607 2.123,-1.961 3.921,-4.236 5.387,-6.826 1.457,-2.598 2.646,-5.357 3.538,-8.279 0.899,-2.926 1.546,-5.932 1.946,-9.03 0.406,-3.092 0.604,-6.121 0.604,-9.085 0.004,-5.55 -0.893,-10.573 -2.691,-15.089 z m -33.618,30.796 c -0.384,1.765 -0.981,3.422 -1.805,4.968 -0.832,1.541 -1.79,2.891 -2.88,4.029 -1.078,1.139 -2.247,2.045 -3.498,2.721 -1.255,0.674 -2.479,1.018 -3.665,1.018 -1.471,0 -2.541,-0.493 -3.226,-1.473 -0.683,-0.992 -1.025,-2.447 -1.025,-4.391 0,-1.098 0.101,-2.262 0.292,-3.49 0.189,-1.229 0.466,-2.454 0.839,-3.679 0.367,-1.222 0.824,-2.396 1.379,-3.503 0.564,-1.112 1.221,-2.08 1.962,-2.909 0.746,-0.835 1.589,-1.498 2.53,-2.001 0.939,-0.494 1.962,-0.743 3.08,-0.743 1.517,0 2.846,0.357 3.994,1.07 1.146,0.708 2.191,1.769 3.146,3.161 l -1.123,5.222 z" id="path13"/>
        </g>
      </g>
      <g id="g15">
        <path style="fill:#ffffff" inkscape:connector-curvature="0" d="m 278.715,101.639 c 0,0.391 -0.125,0.72 -0.354,1.01 -0.234,0.297 -0.62,0.534 -1.162,0.735 -0.543,0.188 -1.281,0.33 -2.226,0.431 -0.951,0.097 -2.12,0.146 -3.515,0.146 -1.424,0 -2.615,-0.05 -3.563,-0.146 -0.939,-0.101 -1.683,-0.241 -2.219,-0.431 -0.549,-0.202 -0.932,-0.438 -1.166,-0.728 -0.232,-0.294 -0.352,-0.626 -0.352,-1.018 l 0,-30.648 c 0,-2.516 -0.18,-4.483 -0.551,-5.911 -0.359,-1.433 -0.896,-2.662 -1.592,-3.687 -0.699,-1.022 -1.61,-1.817 -2.712,-2.379 -1.1,-0.559 -2.392,-0.838 -3.865,-0.838 -1.857,0 -3.742,0.68 -5.643,2.03 -1.898,1.352 -3.879,3.321 -5.928,5.912 l 0.063,25.751 c 0,0.388 -0.116,0.726 -0.354,1.015 -0.229,0.292 -0.622,0.526 -1.191,0.721 -0.557,0.194 -1.312,0.339 -2.242,0.44 -0.931,0.096 -2.103,0.146 -3.542,0.146 -1.438,0 -2.622,-0.051 -3.546,-0.146 -0.928,-0.101 -1.685,-0.247 -2.243,-0.44 -0.562,-0.194 -0.962,-0.434 -1.191,-0.721 -0.234,-0.294 -0.351,-0.632 -0.351,-1.022 l -0.055,-43.197 c 0,-0.391 0.089,-0.728 0.287,-1.018 0.197,-0.285 0.548,-0.534 1.055,-0.728 0.494,-0.191 1.143,-0.337 1.941,-0.438 0.797,-0.093 1.794,-0.141 3,-0.141 1.23,0 2.271,0.048 3.077,0.141 0.815,0.101 1.445,0.247 1.889,0.438 0.45,0.193 0.772,0.443 0.961,0.728 0.199,0.29 0.29,0.627 0.29,1.01 l 0,5.988 c 2.858,-3.067 5.776,-5.366 8.746,-6.905 2.958,-1.531 6.046,-2.302 9.257,-2.302 3.53,0 6.494,0.582 8.912,1.738 2.422,1.163 4.377,2.745 5.867,4.732 1.491,1.991 2.563,4.321 3.223,6.99 0.652,2.672 0.995,5.875 0.995,9.63 l 0,33.112 z" id="path17"/>
      </g>
      <g id="g19">
        <path style="fill:#ffffff" inkscape:connector-curvature="0" d="m 322.583,95.336 c 0,1.707 -0.106,3.024 -0.317,3.938 -0.211,0.909 -0.492,1.551 -0.847,1.921 -0.353,0.365 -0.854,0.698 -1.535,0.987 -0.682,0.292 -1.471,0.542 -2.393,0.761 -0.908,0.216 -1.895,0.38 -2.957,0.489 -1.063,0.116 -2.142,0.181 -3.229,0.181 -2.897,0 -5.418,-0.37 -7.547,-1.111 -2.132,-0.728 -3.893,-1.866 -5.301,-3.395 -1.39,-1.531 -2.411,-3.46 -3.074,-5.782 -0.654,-2.327 -0.987,-5.074 -0.987,-8.257 l 0,-26.548 -6.191,0 c -0.733,0 -1.296,-0.461 -1.683,-1.37 -0.391,-0.906 -0.582,-2.432 -0.582,-4.558 0,-1.115 0.049,-2.062 0.15,-2.841 0.092,-0.775 0.24,-1.388 0.429,-1.83 0.189,-0.441 0.441,-0.764 0.73,-0.955 0.287,-0.189 0.615,-0.29 1.01,-0.29 l 6.137,0 0,-11.543 c 0,-0.393 0.113,-0.735 0.322,-1.042 0.206,-0.312 0.603,-0.572 1.159,-0.783 0.559,-0.214 1.309,-0.367 2.258,-0.468 0.945,-0.09 2.113,-0.138 3.503,-0.138 1.428,0 2.619,0.048 3.569,0.138 0.943,0.101 1.687,0.254 2.23,0.468 0.534,0.211 0.924,0.471 1.158,0.783 0.234,0.307 0.351,0.649 0.351,1.042 l 0,11.544 11.304,0 c 0.387,0 0.725,0.1 1.021,0.29 0.287,0.191 0.539,0.514 0.729,0.955 0.19,0.442 0.344,1.055 0.435,1.83 0.102,0.779 0.146,1.726 0.146,2.841 0,2.125 -0.197,3.651 -0.58,4.558 -0.394,0.909 -0.957,1.37 -1.69,1.37 l -11.366,0 0,24.321 c 0,2.831 0.446,4.951 1.342,6.363 0.889,1.415 2.478,2.123 4.775,2.123 0.775,0 1.477,-0.075 2.105,-0.201 0.615,-0.146 1.168,-0.3 1.656,-0.476 0.479,-0.167 0.887,-0.328 1.229,-0.458 0.328,-0.139 0.632,-0.205 0.902,-0.205 0.231,0 0.453,0.065 0.67,0.205 0.215,0.13 0.377,0.405 0.494,0.816 0.114,0.402 0.227,0.954 0.315,1.652 0.105,0.698 0.15,1.597 0.15,2.675 z" id="path21"/>
      </g>
      <g id="g23">
        <path style="fill:#ffffff" inkscape:connector-curvature="0" d="m 424.806,53.594 c 0,1.398 -0.032,2.546 -0.104,3.442 -0.088,0.892 -0.197,1.597 -0.354,2.096 -0.166,0.499 -0.362,0.854 -0.608,1.047 -0.252,0.194 -0.564,0.285 -0.957,0.285 -0.304,0 -0.654,-0.061 -1.054,-0.194 -0.377,-0.139 -0.811,-0.285 -1.305,-0.438 -0.473,-0.157 -1.008,-0.3 -1.586,-0.436 -0.58,-0.134 -1.213,-0.209 -1.91,-0.209 -0.805,0 -1.631,0.167 -2.436,0.488 -0.808,0.328 -1.652,0.831 -2.529,1.516 -0.867,0.693 -1.768,1.609 -2.715,2.758 -0.947,1.141 -1.959,2.559 -3.041,4.238 l 0,32.313 c 0,0.381 -0.117,0.723 -0.348,1.013 -0.238,0.292 -0.636,0.534 -1.199,0.735 -0.555,0.186 -1.312,0.33 -2.232,0.428 -0.926,0.093 -2.112,0.151 -3.549,0.151 -1.441,0 -2.619,-0.058 -3.545,-0.151 -0.934,-0.098 -1.674,-0.242 -2.236,-0.428 -0.563,-0.202 -0.969,-0.443 -1.201,-0.735 -0.229,-0.29 -0.342,-0.632 -0.342,-1.013 l 0,-51.836 c 0,-0.391 0.103,-0.728 0.287,-1.018 0.197,-0.285 0.545,-0.534 1.047,-0.728 0.5,-0.191 1.154,-0.337 1.949,-0.438 0.787,-0.093 1.799,-0.141 3.002,-0.141 1.23,0 2.256,0.048 3.074,0.141 0.814,0.101 1.449,0.247 1.893,0.438 0.443,0.193 0.756,0.443 0.957,0.728 0.201,0.29 0.287,0.627 0.287,1.01 l 0,6.457 c 1.355,-1.921 2.629,-3.508 3.832,-4.749 1.195,-1.251 2.338,-2.241 3.42,-2.972 1.084,-0.725 2.16,-1.234 3.248,-1.524 1.078,-0.292 2.156,-0.43 3.244,-0.43 0.504,0 1.037,0.028 1.621,0.083 0.58,0.058 1.18,0.155 1.805,0.294 0.609,0.138 1.158,0.287 1.615,0.471 0.469,0.174 0.801,0.354 1.023,0.551 0.211,0.186 0.356,0.408 0.459,0.639 0.096,0.237 0.186,0.552 0.256,0.96 0.08,0.408 0.141,1.025 0.182,1.838 0.036,0.814 0.05,1.922 0.05,3.32 z" id="path25"/>
      </g>
      <g id="g27">
        <path style="fill:#ffffff" inkscape:connector-curvature="0" d="m 484.448,100.5 c 0,0.393 -0.111,0.723 -0.354,1.013 -0.227,0.292 -0.604,0.534 -1.151,0.735 -0.539,0.186 -1.283,0.33 -2.232,0.428 -0.941,0.093 -2.109,0.151 -3.506,0.151 -1.418,0 -2.617,-0.058 -3.564,-0.151 -0.946,-0.098 -1.692,-0.242 -2.227,-0.428 -0.543,-0.202 -0.933,-0.443 -1.158,-0.725 -0.24,-0.292 -0.348,-0.63 -0.348,-1.023 l 0,-29.51 c 0,-2.516 -0.181,-4.483 -0.549,-5.911 -0.373,-1.433 -0.9,-2.662 -1.603,-3.687 -0.695,-1.022 -1.602,-1.817 -2.709,-2.379 -1.104,-0.559 -2.389,-0.838 -3.856,-0.838 -1.863,0 -3.742,0.68 -5.65,2.03 -1.896,1.352 -3.879,3.321 -5.934,5.912 l 0,34.383 c 0,0.393 -0.111,0.73 -0.343,1.023 -0.231,0.282 -0.641,0.523 -1.194,0.725 -0.56,0.186 -1.304,0.33 -2.23,0.428 -0.938,0.093 -2.121,0.151 -3.557,0.151 -1.439,0 -2.623,-0.058 -3.549,-0.151 -0.935,-0.098 -1.681,-0.242 -2.242,-0.428 -0.556,-0.202 -0.947,-0.443 -1.189,-0.735 -0.229,-0.29 -0.342,-0.632 -0.342,-1.013 l 0,-51.836 c 0,-0.391 0.09,-0.728 0.287,-1.018 0.19,-0.285 0.549,-0.534 1.043,-0.728 0.504,-0.191 1.158,-0.337 1.953,-0.438 0.797,-0.093 1.793,-0.141 3.002,-0.141 1.233,0 2.256,0.048 3.072,0.141 0.815,0.101 1.45,0.247 1.889,0.438 0.447,0.193 0.77,0.443 0.961,0.728 0.203,0.29 0.293,0.627 0.293,1.01 l 0,5.988 c 2.861,-3.067 5.777,-5.366 8.744,-6.905 2.961,-1.531 6.049,-2.302 9.262,-2.302 3.521,0 6.492,0.582 8.914,1.738 2.412,1.163 4.367,2.745 5.853,4.732 1.495,1.991 2.573,4.321 3.229,6.99 0.656,2.672 0.988,5.875 0.988,9.63 l -0.003,31.973 0,0 z" id="path29"/>
      </g>
      <g id="g31">
        <path style="fill:#ffffff" inkscape:connector-curvature="0" d="m 545.429,73.135 c 0,1.781 -0.393,3.093 -1.188,3.941 -0.795,0.855 -1.883,1.279 -3.273,1.279 l -31.508,0 c 0,2.208 0.277,4.208 0.797,5.999 0.521,1.797 1.35,3.328 2.488,4.58 1.133,1.257 2.606,2.207 4.391,2.869 1.805,0.658 3.953,0.982 6.467,0.982 2.539,0 4.789,-0.179 6.72,-0.539 1.934,-0.368 3.606,-0.76 5.016,-1.207 1.4,-0.435 2.58,-0.846 3.49,-1.201 0.934,-0.365 1.688,-0.544 2.268,-0.544 0.349,0 0.64,0.063 0.867,0.199 0.234,0.136 0.432,0.377 0.588,0.73 0.15,0.347 0.256,0.836 0.313,1.471 0.057,0.637 0.092,1.438 0.092,2.402 0,0.846 -0.021,1.572 -0.063,2.173 -0.028,0.597 -0.096,1.108 -0.17,1.528 -0.082,0.426 -0.196,0.789 -0.354,1.07 -0.16,0.29 -0.353,0.574 -0.604,0.841 -0.246,0.277 -0.942,0.642 -2.061,1.103 -1.123,0.471 -2.56,0.927 -4.297,1.37 -1.73,0.443 -3.728,0.829 -5.974,1.164 -2.239,0.322 -4.633,0.491 -7.186,0.491 -4.605,0 -8.633,-0.582 -12.094,-1.74 -3.466,-1.166 -6.355,-2.924 -8.673,-5.28 -2.315,-2.36 -4.049,-5.347 -5.192,-8.945 -1.133,-3.599 -1.707,-7.814 -1.707,-12.654 0,-4.608 0.604,-8.76 1.803,-12.455 1.199,-3.689 2.933,-6.83 5.217,-9.403 2.289,-2.571 5.068,-4.528 8.343,-5.887 3.264,-1.36 6.95,-2.035 11.049,-2.035 4.332,0 8.045,0.637 11.121,1.914 3.082,1.277 5.602,3.048 7.573,5.316 1.98,2.266 3.423,4.938 4.349,8.038 0.932,3.098 1.395,6.462 1.395,10.106 l -0.003,2.324 0,0 z m -14.203,-4.14 c 0.121,-4.104 -0.704,-7.328 -2.463,-9.669 -1.756,-2.34 -4.461,-3.516 -8.123,-3.516 -1.856,0 -3.465,0.35 -4.834,1.048 -1.37,0.695 -2.514,1.631 -3.416,2.813 -0.909,1.178 -1.596,2.573 -2.086,4.182 -0.479,1.609 -0.754,3.327 -0.846,5.142 l 21.768,0 z" id="path33"/>
      </g>
      <g id="g35">
        <path style="fill:#ffffff" inkscape:connector-curvature="0" d="m 587.343,95.336 c 0,1.707 -0.102,3.024 -0.313,3.938 -0.222,0.909 -0.498,1.551 -0.851,1.921 -0.342,0.365 -0.854,0.698 -1.537,0.987 -0.684,0.292 -1.471,0.542 -2.387,0.761 -0.906,0.216 -1.901,0.38 -2.955,0.489 -1.069,0.116 -2.141,0.181 -3.225,0.181 -2.916,0 -5.437,-0.37 -7.564,-1.111 -2.125,-0.728 -3.895,-1.866 -5.283,-3.395 -1.391,-1.531 -2.418,-3.46 -3.071,-5.782 -0.664,-2.327 -0.988,-5.074 -0.988,-8.257 l 0,-26.548 -6.209,0 c -0.729,0 -1.299,-0.461 -1.678,-1.37 -0.388,-0.906 -0.574,-2.432 -0.574,-4.558 0,-1.115 0.041,-2.062 0.137,-2.841 0.105,-0.775 0.242,-1.388 0.438,-1.83 0.19,-0.441 0.434,-0.764 0.717,-0.955 0.291,-0.189 0.633,-0.29 1.016,-0.29 l 6.154,0 0,-11.543 c 0,-0.393 0.103,-0.735 0.305,-1.042 0.216,-0.312 0.595,-0.572 1.162,-0.783 0.564,-0.214 1.314,-0.367 2.256,-0.468 0.953,-0.09 2.121,-0.138 3.511,-0.138 1.426,0 2.614,0.048 3.565,0.138 0.938,0.101 1.688,0.254 2.224,0.468 0.543,0.211 0.932,0.471 1.166,0.783 0.237,0.307 0.344,0.649 0.344,1.042 l 0,11.544 11.313,0 c 0.396,0 0.726,0.1 1.019,0.29 0.297,0.191 0.533,0.514 0.729,0.955 0.191,0.442 0.345,1.055 0.443,1.83 0.102,0.779 0.143,1.726 0.143,2.841 0,2.125 -0.188,3.651 -0.586,4.558 -0.393,0.909 -0.944,1.37 -1.686,1.37 l -11.373,0 0,24.321 c 0,2.831 0.447,4.951 1.336,6.363 0.904,1.415 2.496,2.123 4.793,2.123 0.775,0 1.471,-0.075 2.092,-0.201 0.629,-0.146 1.183,-0.3 1.656,-0.476 0.492,-0.167 0.9,-0.328 1.229,-0.458 0.332,-0.139 0.634,-0.205 0.906,-0.205 0.232,0 0.463,0.065 0.67,0.205 0.217,0.13 0.377,0.405 0.504,0.816 0.115,0.402 0.218,0.954 0.316,1.652 0.095,0.698 0.136,1.597 0.136,2.675 z" id="path37"/>
      </g>
      <g id="g39">
        <path style="fill:#ffffff" inkscape:connector-curvature="0" d="m 242.974,168.165 c 0,0.396 -0.094,0.726 -0.269,0.996 -0.185,0.269 -0.483,0.494 -0.919,0.676 -0.435,0.172 -1.011,0.304 -1.754,0.373 -0.734,0.074 -1.633,0.104 -2.721,0.104 -1.146,0 -2.081,-0.03 -2.801,-0.104 -0.717,-0.069 -1.302,-0.201 -1.758,-0.373 -0.443,-0.183 -0.766,-0.408 -0.966,-0.676 -0.197,-0.271 -0.29,-0.601 -0.29,-1.002 l 0,-5.339 c -2.48,2.654 -5.077,4.72 -7.778,6.195 -2.72,1.465 -5.729,2.211 -9.028,2.211 -3.662,0 -6.759,-0.717 -9.283,-2.131 -2.532,-1.416 -4.595,-3.334 -6.199,-5.736 -1.6,-2.407 -2.751,-5.219 -3.473,-8.432 -0.72,-3.213 -1.077,-6.598 -1.077,-10.146 0,-4.275 0.456,-8.113 1.379,-11.529 0.915,-3.404 2.244,-6.314 4.004,-8.717 1.76,-2.408 3.951,-4.256 6.569,-5.551 2.625,-1.289 5.634,-1.939 9.046,-1.939 2.694,0 5.135,0.555 7.331,1.646 2.188,1.094 4.356,2.701 6.514,4.815 l 0,-21.504 c 0,-0.365 0.093,-0.685 0.295,-0.972 0.194,-0.285 0.554,-0.532 1.077,-0.725 0.519,-0.199 1.209,-0.351 2.076,-0.458 0.861,-0.111 1.955,-0.161 3.292,-0.161 1.332,0 2.425,0.05 3.284,0.161 0.863,0.108 1.538,0.259 2.047,0.458 0.504,0.193 0.861,0.44 1.073,0.725 0.216,0.287 0.329,0.606 0.329,0.972 l 0,66.163 z m -13.472,-32.112 c -1.938,-2.447 -3.8,-4.326 -5.571,-5.621 -1.778,-1.289 -3.628,-1.942 -5.567,-1.942 -1.75,0 -3.267,0.442 -4.543,1.319 -1.279,0.881 -2.286,2.064 -3.063,3.539 -0.771,1.471 -1.345,3.117 -1.723,4.933 -0.374,1.817 -0.56,3.682 -0.56,5.579 0,2.015 0.161,3.979 0.481,5.883 0.325,1.904 0.848,3.611 1.589,5.098 0.729,1.496 1.7,2.688 2.924,3.586 1.221,0.906 2.771,1.35 4.625,1.35 0.939,0 1.841,-0.131 2.717,-0.401 0.879,-0.269 1.778,-0.711 2.684,-1.319 0.925,-0.615 1.862,-1.421 2.821,-2.408 0.975,-0.986 2.027,-2.209 3.185,-3.646 l 0.001,-15.95 0,0 z" id="path41"/>
      </g>
      <g id="g43">
        <path style="fill:#ffffff" inkscape:connector-curvature="0" d="m 268.335,116.486 c 0,2.729 -0.554,4.606 -1.665,5.656 -1.12,1.037 -3.181,1.561 -6.2,1.561 -3.042,0 -5.102,-0.504 -6.163,-1.512 -1.056,-1.006 -1.587,-2.814 -1.587,-5.435 0,-2.729 0.543,-4.616 1.646,-5.676 1.091,-1.067 3.167,-1.591 6.222,-1.591 3.01,0 5.058,0.514 6.143,1.531 1.068,1.029 1.604,2.847 1.604,5.466 z m -1.009,51.679 c 0,0.36 -0.106,0.676 -0.33,0.946 -0.212,0.263 -0.58,0.482 -1.1,0.664 -0.521,0.187 -1.215,0.313 -2.079,0.412 -0.858,0.082 -1.954,0.127 -3.28,0.127 -1.343,0 -2.431,-0.045 -3.294,-0.127 -0.865,-0.1 -1.559,-0.227 -2.077,-0.412 -0.524,-0.182 -0.885,-0.401 -1.103,-0.664 -0.22,-0.271 -0.318,-0.586 -0.318,-0.946 l 0,-38.034 c 0,-0.363 0.099,-0.67 0.318,-0.938 0.218,-0.271 0.578,-0.51 1.103,-0.705 0.519,-0.197 1.212,-0.348 2.077,-0.453 0.863,-0.111 1.951,-0.166 3.294,-0.166 1.326,0 2.422,0.055 3.28,0.166 0.864,0.105 1.558,0.256 2.079,0.453 0.52,0.195 0.888,0.434 1.1,0.705 0.224,0.268 0.33,0.574 0.33,0.938 l 0,38.034 z" id="path45"/>
      </g>
      <g id="g47">
        <path style="fill:#ffffff" inkscape:connector-curvature="0" d="m 323.484,168.165 c 0,0.36 -0.116,0.676 -0.334,0.946 -0.217,0.263 -0.573,0.482 -1.077,0.664 -0.503,0.187 -1.197,0.313 -2.074,0.412 -0.888,0.082 -1.963,0.127 -3.248,0.127 -1.334,0 -2.443,-0.045 -3.33,-0.127 -0.878,-0.1 -1.563,-0.227 -2.064,-0.412 -0.511,-0.182 -0.867,-0.401 -1.081,-0.664 -0.219,-0.271 -0.326,-0.586 -0.326,-0.946 l 0,-27.429 c 0,-2.336 -0.167,-4.164 -0.505,-5.5 -0.35,-1.318 -0.838,-2.467 -1.484,-3.424 -0.65,-0.938 -1.484,-1.683 -2.502,-2.201 -1.021,-0.521 -2.211,-0.785 -3.573,-0.785 -1.723,0 -3.466,0.635 -5.223,1.889 -1.758,1.258 -3.586,3.092 -5.487,5.5 l 0,31.95 c 0,0.36 -0.105,0.676 -0.322,0.946 -0.216,0.263 -0.589,0.482 -1.103,0.664 -0.527,0.187 -1.215,0.313 -2.073,0.412 -0.868,0.082 -1.958,0.127 -3.293,0.127 -1.33,0 -2.428,-0.045 -3.284,-0.127 -0.863,-0.1 -1.559,-0.227 -2.086,-0.412 -0.52,-0.182 -0.885,-0.401 -1.092,-0.664 -0.22,-0.271 -0.338,-0.586 -0.338,-0.946 l 0,-48.058 c 0,-0.357 0.099,-0.676 0.272,-0.947 0.183,-0.262 0.507,-0.493 0.972,-0.674 0.472,-0.172 1.07,-0.313 1.815,-0.404 0.73,-0.085 1.658,-0.131 2.77,-0.131 1.151,0 2.097,0.046 2.856,0.131 0.758,0.092 1.334,0.232 1.752,0.404 0.414,0.181 0.713,0.412 0.893,0.674 0.175,0.271 0.267,0.59 0.267,0.947 l 0,5.545 c 2.654,-2.865 5.356,-5.021 8.101,-6.451 2.745,-1.441 5.611,-2.156 8.591,-2.156 3.271,0 6.023,0.545 8.263,1.617 2.246,1.082 4.062,2.543 5.437,4.387 1.385,1.857 2.383,4.02 2.991,6.492 0.613,2.482 0.922,5.465 0.922,8.943 l 0,29.681 -0.003,0 z" id="path49"/>
      </g>
      <g id="g51">
        <path style="fill:#ffffff" inkscape:connector-curvature="0" d="m 376.023,168.327 c 0,0.502 -0.182,0.896 -0.539,1.184 -0.358,0.287 -0.922,0.498 -1.692,0.617 -0.771,0.127 -1.908,0.188 -3.424,0.188 -1.611,0 -2.785,-0.062 -3.531,-0.188 -0.729,-0.119 -1.248,-0.33 -1.551,-0.617 -0.313,-0.286 -0.463,-0.682 -0.463,-1.184 l 0,-3.828 c -1.976,2.125 -4.23,3.774 -6.75,4.955 -2.527,1.174 -5.339,1.772 -8.414,1.772 -2.556,0 -4.894,-0.344 -7.027,-1.008 -2.135,-0.66 -3.979,-1.641 -5.539,-2.961 -1.563,-1.314 -2.77,-2.941 -3.643,-4.881 -0.851,-1.934 -1.283,-4.199 -1.283,-6.795 0,-2.799 0.539,-5.232 1.644,-7.297 1.088,-2.07 2.729,-3.771 4.895,-5.122 2.166,-1.351 4.865,-2.349 8.088,-2.992 3.234,-0.646 6.98,-0.967 11.252,-0.967 l 4.674,0 0,-2.91 c 0,-1.506 -0.141,-2.832 -0.447,-3.959 -0.309,-1.129 -0.815,-2.076 -1.506,-2.819 -0.705,-0.757 -1.643,-1.312 -2.801,-1.673 -1.174,-0.362 -2.605,-0.534 -4.328,-0.534 -2.27,0 -4.264,0.254 -6.047,0.756 -1.777,0.494 -3.344,1.059 -4.715,1.662 -1.35,0.614 -2.486,1.174 -3.404,1.672 -0.918,0.504 -1.652,0.762 -2.236,0.762 -0.393,0 -0.739,-0.131 -1.047,-0.383 -0.303,-0.258 -0.555,-0.605 -0.746,-1.074 -0.2,-0.473 -0.352,-1.037 -0.463,-1.721 -0.104,-0.687 -0.162,-1.441 -0.162,-2.258 0,-1.117 0.093,-1.988 0.273,-2.634 0.18,-0.649 0.518,-1.233 1.021,-1.748 0.498,-0.522 1.381,-1.098 2.633,-1.729 1.262,-0.623 2.732,-1.203 4.414,-1.746 1.682,-0.535 3.523,-0.974 5.514,-1.312 1.984,-0.342 4.039,-0.514 6.16,-0.514 3.758,0 6.98,0.373 9.654,1.107 2.674,0.735 4.869,1.865 6.592,3.396 1.723,1.525 2.973,3.49 3.758,5.896 0.797,2.408 1.189,5.258 1.189,8.563 l 0,32.321 -0.003,0 z m -13.305,-20.609 -5.157,0 c -2.177,0 -4.039,0.16 -5.591,0.482 -1.54,0.321 -2.788,0.811 -3.766,1.455 -0.953,0.649 -1.674,1.432 -2.117,2.352 -0.446,0.912 -0.67,1.972 -0.67,3.154 0,2.014 0.629,3.596 1.897,4.754 1.279,1.147 3.05,1.724 5.31,1.724 1.885,0 3.637,-0.488 5.233,-1.455 1.597,-0.978 3.218,-2.394 4.859,-4.267 l 0.002,-8.199 0,0 z" id="path53"/>
      </g>
      <g id="g55">
        <path style="fill:#ffffff" inkscape:connector-curvature="0" d="m 466.267,168.165 c 0,0.36 -0.104,0.676 -0.332,0.946 -0.217,0.263 -0.59,0.482 -1.1,0.664 -0.521,0.187 -1.219,0.313 -2.104,0.412 -0.886,0.082 -2.005,0.127 -3.373,0.127 -1.4,0 -2.55,-0.045 -3.435,-0.127 -0.879,-0.1 -1.598,-0.227 -2.127,-0.412 -0.543,-0.182 -0.899,-0.401 -1.102,-0.664 -0.207,-0.271 -0.31,-0.586 -0.31,-0.946 l 0,-28.501 c 0,-1.623 -0.16,-3.092 -0.463,-4.428 -0.322,-1.318 -0.807,-2.467 -1.43,-3.424 -0.65,-0.938 -1.461,-1.683 -2.439,-2.201 -0.965,-0.521 -2.135,-0.785 -3.494,-0.785 -1.646,0 -3.313,0.635 -5.006,1.889 -1.692,1.258 -3.524,3.092 -5.51,5.5 l 0,31.95 c 0,0.36 -0.107,0.676 -0.338,0.946 -0.217,0.263 -0.6,0.482 -1.133,0.664 -0.533,0.187 -1.238,0.313 -2.131,0.412 -0.877,0.082 -1.99,0.127 -3.318,0.127 -1.361,0 -2.488,-0.045 -3.375,-0.127 -0.891,-0.1 -1.592,-0.227 -2.127,-0.412 -0.533,-0.182 -0.91,-0.401 -1.137,-0.664 -0.218,-0.271 -0.332,-0.586 -0.332,-0.946 l 0,-28.501 c 0,-1.623 -0.156,-3.092 -0.463,-4.428 -0.313,-1.318 -0.787,-2.467 -1.416,-3.424 -0.625,-0.938 -1.437,-1.683 -2.425,-2.201 -0.996,-0.521 -2.153,-0.785 -3.483,-0.785 -1.691,0 -3.396,0.635 -5.082,1.889 -1.697,1.258 -3.521,3.092 -5.474,5.5 l 0,31.95 c 0,0.36 -0.11,0.676 -0.327,0.946 -0.228,0.263 -0.601,0.482 -1.14,0.664 -0.528,0.187 -1.233,0.313 -2.131,0.412 -0.887,0.082 -2.014,0.127 -3.362,0.127 -1.382,0 -2.505,-0.045 -3.386,-0.127 -0.887,-0.1 -1.598,-0.227 -2.135,-0.412 -0.529,-0.182 -0.908,-0.401 -1.129,-0.664 -0.224,-0.271 -0.345,-0.586 -0.345,-0.946 l 0,-48.058 c 0,-0.357 0.113,-0.676 0.283,-0.947 0.187,-0.262 0.521,-0.493 1.002,-0.674 0.479,-0.172 1.098,-0.313 1.851,-0.404 0.754,-0.085 1.704,-0.131 2.85,-0.131 1.188,0 2.166,0.046 2.933,0.131 0.774,0.092 1.368,0.232 1.809,0.404 0.418,0.181 0.719,0.412 0.9,0.674 0.19,0.271 0.282,0.59 0.282,0.947 l 0,5.545 c 2.729,-2.865 5.443,-5.021 8.158,-6.451 2.699,-1.441 5.529,-2.156 8.486,-2.156 2.016,0 3.842,0.213 5.463,0.625 1.623,0.412 3.074,1.008 4.342,1.773 1.271,0.77 2.373,1.69 3.283,2.77 0.928,1.068 1.705,2.275 2.328,3.602 1.477,-1.541 2.912,-2.871 4.332,-3.979 1.42,-1.109 2.819,-2.021 4.194,-2.715 1.386,-0.701 2.765,-1.225 4.146,-1.563 1.381,-0.332 2.781,-0.515 4.221,-0.515 3.273,0 6.033,0.545 8.291,1.617 2.234,1.082 4.049,2.543 5.418,4.387 1.392,1.857 2.367,4.021 2.961,6.492 0.584,2.481 0.877,5.103 0.877,7.867 l 0,30.758 0.004,0 z" id="path57"/>
      </g>
      <g id="g59">
        <path style="fill:#ffffff" inkscape:connector-curvature="0" d="m 492.31,116.486 c 0,2.729 -0.563,4.606 -1.665,5.656 -1.119,1.037 -3.185,1.561 -6.191,1.561 -3.066,0 -5.121,-0.504 -6.178,-1.512 -1.06,-1.006 -1.582,-2.814 -1.582,-5.435 0,-2.729 0.543,-4.616 1.641,-5.676 1.09,-1.067 3.164,-1.591 6.215,-1.591 3.014,0 5.057,0.514 6.146,1.531 1.065,1.029 1.614,2.847 1.614,5.466 z m -1.022,51.679 c 0,0.36 -0.103,0.676 -0.316,0.946 -0.219,0.263 -0.592,0.482 -1.114,0.664 -0.519,0.187 -1.209,0.313 -2.07,0.412 -0.859,0.082 -1.963,0.127 -3.299,0.127 -1.318,0 -2.416,-0.045 -3.283,-0.127 -0.855,-0.1 -1.551,-0.227 -2.07,-0.412 -0.518,-0.182 -0.896,-0.401 -1.11,-0.664 -0.224,-0.271 -0.322,-0.586 -0.322,-0.946 l 0,-38.034 c 0,-0.363 0.1,-0.67 0.322,-0.938 0.215,-0.271 0.594,-0.51 1.11,-0.705 0.521,-0.197 1.215,-0.348 2.07,-0.453 0.867,-0.111 1.965,-0.166 3.283,-0.166 1.336,0 2.438,0.055 3.299,0.166 0.861,0.105 1.553,0.256 2.07,0.453 0.522,0.195 0.896,0.434 1.114,0.705 0.216,0.268 0.316,0.574 0.316,0.938 l 0,38.034 z" id="path61"/>
      </g>
      <g id="g63">
        <path style="fill:#ffffff" inkscape:connector-curvature="0" d="m 538.579,160.438 c 0,0.929 -0.021,1.703 -0.08,2.328 -0.051,0.633 -0.115,1.168 -0.217,1.59 -0.086,0.435 -0.191,0.787 -0.316,1.05 -0.121,0.271 -0.408,0.612 -0.826,1.032 -0.442,0.418 -1.174,0.927 -2.217,1.535 -1.043,0.601 -2.227,1.139 -3.555,1.603 -1.33,0.475 -2.771,0.864 -4.332,1.157 -1.557,0.281 -3.162,0.429 -4.812,0.429 -3.696,0 -6.975,-0.568 -9.823,-1.718 -2.853,-1.151 -5.254,-2.852 -7.185,-5.088 -1.942,-2.244 -3.403,-4.983 -4.391,-8.213 -0.984,-3.237 -1.482,-6.926 -1.482,-11.095 0,-4.807 0.605,-8.967 1.806,-12.461 1.209,-3.5 2.879,-6.399 5.035,-8.703 2.155,-2.286 4.692,-3.998 7.641,-5.116 2.947,-1.107 6.17,-1.668 9.695,-1.668 1.43,0 2.836,0.127 4.211,0.379 1.381,0.252 2.68,0.594 3.887,1.026 1.199,0.425 2.277,0.916 3.229,1.455 0.951,0.539 1.615,1.002 2.019,1.396 0.393,0.402 0.666,0.729 0.836,1.002 0.162,0.267 0.293,0.619 0.369,1.054 0.096,0.422 0.166,0.957 0.211,1.58 0.061,0.635 0.084,1.391 0.084,2.293 0,2.09 -0.18,3.539 -0.543,4.391 -0.349,0.847 -0.82,1.271 -1.389,1.271 -0.611,0 -1.265,-0.246 -1.945,-0.76 -0.687,-0.5 -1.49,-1.06 -2.428,-1.662 -0.927,-0.609 -2.033,-1.174 -3.324,-1.672 -1.31,-0.504 -2.84,-0.756 -4.644,-0.756 -3.524,0 -6.209,1.354 -8.077,4.063 -1.869,2.705 -2.802,6.674 -2.802,11.909 0,2.584 0.232,4.856 0.705,6.83 0.463,1.975 1.154,3.631 2.074,4.957 0.912,1.324 2.055,2.322 3.436,2.979 1.392,0.664 2.996,0.998 4.824,0.998 1.873,0 3.465,-0.276 4.82,-0.836 1.34,-0.563 2.522,-1.188 3.531,-1.873 1.006,-0.69 1.854,-1.312 2.532,-1.865 0.685,-0.559 1.255,-0.84 1.728,-0.84 0.313,0 0.584,0.09 0.807,0.267 0.201,0.188 0.383,0.514 0.502,0.998 0.133,0.483 0.224,1.104 0.293,1.854 0.084,0.746 0.113,1.717 0.113,2.9 z" id="path65"/>
      </g>
      <g id="g67">
        <path style="fill:#ffffff" inkscape:connector-curvature="0" d="m 590.591,168.327 c 0,0.502 -0.188,0.896 -0.539,1.184 -0.356,0.287 -0.926,0.498 -1.703,0.617 -0.766,0.127 -1.901,0.188 -3.403,0.188 -1.627,0 -2.791,-0.062 -3.535,-0.188 -0.74,-0.119 -1.266,-0.33 -1.562,-0.617 -0.313,-0.286 -0.465,-0.682 -0.465,-1.184 l 0,-3.828 c -1.963,2.125 -4.215,3.774 -6.748,4.955 -2.532,1.174 -5.328,1.772 -8.42,1.772 -2.549,0 -4.887,-0.344 -7.021,-1.008 -2.131,-0.66 -3.969,-1.641 -5.535,-2.961 -1.563,-1.314 -2.775,-2.941 -3.627,-4.881 -0.871,-1.934 -1.293,-4.199 -1.293,-6.795 0,-2.799 0.537,-5.232 1.631,-7.297 1.098,-2.07 2.729,-3.771 4.906,-5.122 2.153,-1.351 4.854,-2.349 8.088,-2.992 3.223,-0.646 6.979,-0.967 11.246,-0.967 l 4.68,0 0,-2.91 c 0,-1.506 -0.156,-2.832 -0.455,-3.959 -0.311,-1.129 -0.811,-2.076 -1.5,-2.819 -0.711,-0.757 -1.641,-1.312 -2.816,-1.673 -1.151,-0.362 -2.604,-0.534 -4.313,-0.534 -2.262,0 -4.281,0.254 -6.049,0.756 -1.779,0.494 -3.347,1.059 -4.699,1.662 -1.365,0.614 -2.504,1.174 -3.414,1.672 -0.922,0.504 -1.662,0.762 -2.236,0.762 -0.395,0 -0.752,-0.131 -1.049,-0.383 -0.311,-0.258 -0.555,-0.605 -0.76,-1.074 -0.187,-0.473 -0.338,-1.037 -0.459,-1.721 -0.103,-0.687 -0.15,-1.441 -0.15,-2.258 0,-1.117 0.08,-1.988 0.271,-2.634 0.172,-0.649 0.514,-1.233 1.008,-1.748 0.518,-0.522 1.389,-1.098 2.648,-1.729 1.25,-0.623 2.725,-1.203 4.401,-1.746 1.691,-0.535 3.521,-0.974 5.517,-1.312 1.993,-0.342 4.043,-0.514 6.157,-0.514 3.769,0 6.98,0.373 9.656,1.107 2.685,0.735 4.869,1.865 6.598,3.396 1.718,1.525 2.976,3.49 3.763,5.896 0.791,2.408 1.184,5.258 1.184,8.563 l 0,32.321 -0.003,0 z m -13.301,-20.609 -5.158,0 c -2.186,0 -4.049,0.16 -5.59,0.482 -1.543,0.321 -2.801,0.811 -3.769,1.455 -0.969,0.649 -1.682,1.432 -2.125,2.352 -0.442,0.912 -0.666,1.972 -0.666,3.154 0,2.014 0.636,3.596 1.904,4.754 1.271,1.147 3.037,1.724 5.303,1.724 1.89,0 3.642,-0.488 5.238,-1.455 1.586,-0.978 3.209,-2.394 4.861,-4.267 l 0.002,-8.199 0,0 z" id="path69"/>
      </g>
      <g id="g71">
        <path style="fill:#ffffff" inkscape:connector-curvature="0" d="m 208.921,53.191 c 3.127,0 5.268,-0.534 6.421,-1.611 1.158,-1.076 1.732,-3.029 1.732,-5.85 0,-2.712 -0.557,-4.601 -1.67,-5.659 -1.12,-1.055 -3.24,-1.589 -6.368,-1.589 -3.168,0 -5.314,0.549 -6.452,1.647 -1.139,1.095 -1.702,3.052 -1.702,5.88 0,2.712 0.548,4.585 1.647,5.625 1.096,1.041 3.232,1.557 6.392,1.557 z" id="path73"/>
        <path style="fill:#ffffff" inkscape:connector-curvature="0" d="m 214.812,58.379 c -0.565,-0.217 -1.318,-0.383 -2.256,-0.504 -0.936,-0.113 -2.128,-0.173 -3.575,-0.173 -1.45,0 -2.643,0.06 -3.576,0.173 -0.941,0.122 -1.691,0.287 -2.258,0.504 -0.564,0.219 -0.97,0.473 -1.204,0.763 -0.234,0.292 -0.348,0.634 -0.348,1.03 l 0,40.923 c 0,0.393 0.113,0.735 0.348,1.028 0.233,0.289 0.639,0.541 1.204,0.74 0.566,0.194 1.317,0.338 2.258,0.439 0.933,0.096 2.125,0.146 3.576,0.146 1.446,0 2.639,-0.05 3.575,-0.146 0.938,-0.101 1.691,-0.245 2.256,-0.439 0.566,-0.199 0.969,-0.451 1.204,-0.74 0.239,-0.292 0.349,-0.635 0.349,-1.028 l 0,-40.924 c 0,-0.396 -0.11,-0.738 -0.349,-1.03 -0.235,-0.289 -0.639,-0.543 -1.204,-0.762 z" id="path75"/>
      </g>
      <g id="g77">
        <path style="fill:#ffffff" inkscape:connector-curvature="0" d="m 376.607,90.224 c -0.155,-0.353 -0.342,-0.594 -0.573,-0.73 -0.242,-0.136 -0.529,-0.199 -0.871,-0.199 -0.584,0 -1.34,0.179 -2.263,0.544 -0.928,0.355 -2.104,0.766 -3.516,1.201 -1.4,0.446 -3.072,0.838 -5.002,1.207 -0.431,0.08 -0.881,0.147 -1.34,0.21 l 0,10.947 c 0.15,-0.021 0.309,-0.036 0.459,-0.057 2.236,-0.335 4.23,-0.72 5.969,-1.164 1.748,-0.443 3.168,-0.898 4.291,-1.37 1.123,-0.461 1.809,-0.826 2.055,-1.103 0.259,-0.267 0.453,-0.551 0.613,-0.841 0.158,-0.282 0.269,-0.644 0.351,-1.07 0.079,-0.42 0.129,-0.931 0.17,-1.528 0.041,-0.602 0.061,-1.327 0.061,-2.173 0,-0.964 -0.03,-1.765 -0.09,-2.402 -0.055,-0.636 -0.162,-1.125 -0.314,-1.472 z" id="path79"/>
        <g id="g81">
          <path style="fill:#ffffff" inkscape:connector-curvature="0" d="m 378.1,60.705 c -0.933,-3.099 -2.377,-5.771 -4.353,-8.038 -1.976,-2.269 -4.496,-4.039 -7.574,-5.316 -3.071,-1.276 -6.782,-1.914 -11.114,-1.914 -4.105,0 -7.787,0.675 -11.062,2.035 -3.269,1.359 -6.049,3.316 -8.33,5.887 -2.276,2.573 -4.019,5.714 -5.224,9.403 -1.198,3.695 -1.803,7.847 -1.803,12.455 0,4.84 0.574,9.056 1.717,12.654 1.144,3.598 2.865,6.585 5.185,8.945 2.326,2.356 5.211,4.114 8.679,5.28 2.329,0.78 4.941,1.276 7.79,1.531 l 0,-11.577 c -0.271,-0.081 -0.554,-0.153 -0.811,-0.247 -1.793,-0.662 -3.261,-1.611 -4.402,-2.869 -1.143,-1.251 -1.969,-2.782 -2.481,-4.58 -0.529,-1.791 -0.787,-3.791 -0.787,-5.999 l 31.498,0 c 1.391,0 2.483,-0.423 3.279,-1.279 0.778,-0.849 1.188,-2.161 1.188,-3.941 l 0,-2.324 c -0.002,-3.644 -0.47,-7.008 -1.395,-10.106 z m -34.573,8.29 c 0.076,-1.815 0.357,-3.533 0.837,-5.142 0.483,-1.609 1.18,-3.004 2.09,-4.182 0.901,-1.182 2.041,-2.118 3.41,-2.813 1.37,-0.698 2.977,-1.048 4.836,-1.048 3.666,0 6.375,1.176 8.129,3.516 1.758,2.342 2.571,5.565 2.457,9.669 l -21.759,0 z" id="path83"/>
        </g>
      </g>
    </g>
  </g>
<style xmlns="http://www.w3.org/1999/xhtml" id="VMst0.2940544840963982">
.dev-hide, #debug {
display: block !important;
}
</style></svg>